{"title":"The Jungle Book (2016) 1080p[Dual Audio][ENG(5.1)-HINDI(5.1)]~{P","uid":15680548,"size":5302991348,"categoryP":"video","categoryS":"hd___movies","magnet":"?xt=urn:btih:d5ba9d6cc2383d375e2e75bd2762307c2bebce0c&amp;dn=The+Jungle+Book+%282016%29+1080p%5BDual+Audio%5D%5BENG%285.1%29-HINDI%285.1%29%5D%7E%7BP&amp;tr=udp%3A%2F%2Ftracker.leechers-paradise.org%3A6969&amp;tr=udp%3A%2F%2Fzer0day.ch%3A1337&amp;tr=udp%3A%2F%2Fopen.demonii.com%3A1337&amp;tr=udp%3A%2F%2Ftracker.coppersurfer.tk%3A6969&amp;tr=udp%3A%2F%2Fexodus.desync.com%3A6969","seeders":3,"leechers":7,"uploader":"The_PHDR","files":13,"time":1472309037,"description":"[center][size=5][b]The Jungle Book (2016) 1080p[Dual Audio][ENG(5.1)-HINDI(5.1)]~{PHDR}~[/b][/size]\r\n\r\n[img]http://extraimago.com/images/2016/08/27/wSOk.jpg[/img]\r\n\r\n\r\n[img]http://img16.imageshack.us/img16/5184/cooltext522897865.png[/img]\r\n[IMG]http://img209.imageshack.us/img209/1886/cooltext636522109.png[/IMG]\r\n\r\nStoryline : \r\n\r\nAfter a threat from the tiger Shere Khan forces him to flee the jungle, a man-cub named Mowgli embarks on a journey of self discovery with the help of panther, Bagheera, and free spirited bear, Baloo. \r\n\r\n\r\n[img]http://img21.imageshack.us/img21/4868/zvbzx21.png[/img]\r\n\r\n\r\nGeneral\r\n\r\nFormat                      : Matroska\r\nFormat version              : Version 4 / Version 2\r\nFile size                   : 4.88 GiB\r\nDuration                    : 1h 45mn\r\nOverall bit rate            : 6 592 Kbps\r\nMovie name                  : The Jungle Book (2016) 1080p[Dual Audio][ENG(5.1)-HINDI(5.1)]~{PHDR}~\r\n\r\n\r\nVideo\r\nID                          : 1\r\nFormat                      : AVC\r\nFormat/Info                 : Advanced Video Codec\r\nFormat profile              :   \r\nFormat settings, CABAC      : Yes\r\nFormat settings, ReFrames   : 4 frames\r\nCodec ID                    : V_MPEG4/ISO/AVC\r\nDuration                    : 1h 45mn\r\nBit rate                    : 5 300 Kbps\r\nWidth                       : 1 920 pixels\r\nHeight                      : 1 038 pixels\r\nDisplay aspect ratio        : 1.85:1\r\nFrame rate mode             : Constant\r\nFrame rate                  : 23.976 (24000/1001) fps\r\nColor space                 : YUV\r\nChroma subsampling          : 4:2:0\r\nBit depth                   : 8 bits\r\nScan type                   : Progressive\r\nBits/(Pixel*Frame)          : 0.111\r\nStream size                 : 3.92 GiB (80%)\r\nTitle                       : x264, 1080p24\r\nLanguage                    : vai\r\nDefault                     : Yes\r\nForced                      : No\r\n\r\nAudio #1\r\nID                          : 2\r\nFormat                      : AC-3\r\nFormat/Info                 : Audio Coding 3\r\nMode extension              : CM (complete main)\r\nFormat settings, Endianness : Big\r\nCodec ID                    : A_AC3\r\nDuration                    : 1h 45mn\r\nBit rate mode               : Constant\r\nBit rate                    : 640 Kbps\r\nChannel(s)                  : 6 channels\r\nChannel positions           : Front: L C R, Side: L R, LFE\r\nSampling rate               : 48.0 KHz\r\nFrame rate                  : 31.250 fps (1536 spf)\r\nCompression mode            : Lossy\r\nStream size                 : 485 MiB (10%)\r\nTitle                       : Bluray ~{PHDR}~\r\nLanguage                    : Hindi\r\nDefault                     : Yes\r\nForced                      : No\r\n\r\nAudio #2\r\nID                          : 3\r\nFormat                      : AC-3\r\nFormat/Info                 : Audio Coding 3\r\nMode extension              : CM (complete main)\r\nFormat settings, Endianness : Big\r\nCodec ID                    : A_AC3\r\nDuration                    : 1h 45mn\r\nBit rate mode               : Constant\r\nBit rate                    : 640 Kbps\r\nChannel(s)                  : 6 channels\r\nChannel positions           : Front: L C R, Side: L R, LFE\r\nSampling rate               : 48.0 KHz\r\nFrame rate                  : 31.250 fps (1536 spf)\r\nCompression mode            : Lossy\r\nStream size                 : 485 MiB (10%)\r\nTitle                       : Bluray ~{PHDR}~\r\nLanguage                    : English\r\nDefault                     : No\r\nForced                      : No\r\n\r\nText\r\nID                          : 4\r\nFormat                      : PGS\r\nMuxing mode                 : zlib\r\nCodec ID                    : S_HDMV/PGS\r\nCodec ID/Info               : Picture based subtitle format used on BDs/HD-DVDs\r\nDuration                    : 1h 44mn\r\nBit rate                    : 10.6 Kbps\r\nCount of elements           : 2822\r\nStream size                 : 7.94 MiB (0%)\r\nTitle                       : Bluray SDH ~{PHDR}~\r\nLanguage                    : English\r\nDefault                     : Yes\r\nForced                      : No\r\n\r\nMenu : Yes ( Named )\r\n\r\n\r\n[img]http://i.imgur.com/Q3KFG70.gif[/img]\r\n\r\n[url=http://extraimago.com/image/wSOB][img]http://extraimago.com/images/2016/08/27/wSOB.th.jpg[/img][/url] [url=http://extraimago.com/image/wSOC][img]http://extraimago.com/images/2016/08/27/wSOC.th.jpg[/img][/url] [url=http://extraimago.com/image/wSOY][img]http://extraimago.com/images/2016/08/27/wSOY.th.jpg[/img][/url] [url=http://extraimago.com/image/wSOp][img]http://extraimago.com/images/2016/08/27/wSOp.th.jpg[/img][/url] [url=http://extraimago.com/image/wSOr][img]http://extraimago.com/images/2016/08/27/wSOr.th.jpg[/img][/url] [url=http://extraimago.com/image/wSOG][img]http://extraimago.com/images/2016/08/27/wSOG.th.jpg[/img][/url] [url=http://extraimago.com/image/wSOP][img]http://extraimago.com/images/2016/08/27/wSOP.th.jpg[/img][/url] [url=http://extraimago.com/image/wSOX][img]http://extraimago.com/images/2016/08/27/wSOX.th.jpg[/img][/url] [url=http://extraimago.com/image/wSOg][img]http://extraimago.com/images/2016/08/27/wSOg.th.jpg[/img][/url]\r\n\r\n[IMG]http://imageshack.us/a/img593/4364/zkex.png[/IMG]\r\n\r\n[color=red][size=6][b]NOTE :[/B][/size][/color]\r\n\r\n \r\n1. SEEDING FROM HIGH SPEED SERVER, ENJOY MAX DOWNLOAD SPEED ;)\r\n2. HINDI AUDIO FROM OWN BLURAY \r\n3. ENjOY THe PERFECTION, FOR THOSE WHO LIKE PERFECTION\r\n4. FOR MORE DETAILS AND UPCOMING U CAN CHECK MYPAGE\r\n\r\n\r\n[color=red][size=6][The legend will never be the same...!!![/B][/size][/color]","torrent":{"xt":"urn:btih:d5ba9d6cc2383d375e2e75bd2762307c2bebce0c","amp;dn":"The+Jungle+Book+%282016%29+1080p%5BDual+Audio%5D%5BENG%285.1%29-HINDI%285.1%29%5D%7E%7BP","amp;tr":["udp%3A%2F%2Ftracker.leechers-paradise.org%3A6969","udp%3A%2F%2Fzer0day.ch%3A1337","udp%3A%2F%2Fopen.demonii.com%3A1337","udp%3A%2F%2Ftracker.coppersurfer.tk%3A6969","udp%3A%2F%2Fexodus.desync.com%3A6969"],"infoHash":"d5ba9d6cc2383d375e2e75bd2762307c2bebce0c","infoHashBuffer":{"type":"Buffer","data":[213,186,157,108,194,56,61,55,94,46,117,189,39,98,48,124,43,235,206,12]},"announce":[],"urlList":[]}}